<svg width="25" height="25" viewBox="0 0 25 25" fill="none" xmlns="http://www.w3.org/2000/svg">
<path d="M18.7502 13.5413H13.5418V18.7497C13.5418 19.3226 13.0731 19.7913 12.5002 19.7913C11.9272 19.7913 11.4585 19.3226 11.4585 18.7497V13.5413H6.25016C5.67725 13.5413 5.2085 13.0726 5.2085 12.4997C5.2085 11.9268 5.67725 11.458 6.25016 11.458H11.4585V6.24967C11.4585 5.67676 11.9272 5.20801 12.5002 5.20801C13.0731 5.20801 13.5418 5.67676 13.5418 6.24967V11.458H18.7502C19.3231 11.458 19.7918 11.9268 19.7918 12.4997C19.7918 13.0726 19.3231 13.5413 18.7502 13.5413Z" fill="#FF7510"/>
</svg>
