<svg width="16" height="16" viewBox="0 0 16 16" fill="none" xmlns="http://www.w3.org/2000/svg">
<path d="M6.92373 6.11366L3.94373 3.13366C3.68373 2.87366 3.26373 2.87366 3.00373 3.13366C2.74373 3.39366 2.74373 3.81366 3.00373 4.07366L5.97706 7.04699L6.92373 6.11366ZM10.0971 3.23366L10.8904 4.02699L2.99706 11.9203C2.73706 12.1803 2.73706 12.6003 2.99706 12.8603C3.25706 13.1203 3.67706 13.1203 3.93706 12.8603L11.8371 4.97366L12.6304 5.76699C12.8371 5.97366 13.1971 5.82699 13.1971 5.52699V3.00033C13.1971 2.81366 13.0504 2.66699 12.8637 2.66699H10.3371C10.0371 2.66699 9.8904 3.02699 10.0971 3.23366ZM9.7504 8.94033L8.8104 9.88033L10.8971 11.967L10.0971 12.767C9.8904 12.9737 10.0371 13.3337 10.3371 13.3337H12.8637C13.0504 13.3337 13.1971 13.187 13.1971 13.0003V10.4737C13.1971 10.1737 12.8371 10.027 12.6304 10.2403L11.8371 11.0337L9.7504 8.94033Z" fill="#0E0E0E"/>
</svg>
