<svg width="42" height="42" viewBox="0 0 42 42" fill="none" xmlns="http://www.w3.org/2000/svg">
<rect x="1" y="1" width="40" height="40" fill="#69FF12"/>
<rect x="1" y="1" width="40" height="40" rx="13" fill="white" stroke="white"/>
<path d="M24.9765 23.4716H24.1865L23.9065 23.2016C25.1065 21.8016 25.7265 19.8916 25.3865 17.8616C24.9165 15.0816 22.5965 12.8616 19.7965 12.5216C15.5665 12.0016 12.0065 15.5616 12.5265 19.7916C12.8665 22.5916 15.0865 24.9116 17.8665 25.3816C19.8965 25.7216 21.8065 25.1016 23.2065 23.9016L23.4765 24.1816V24.9716L27.7265 29.2216C28.1365 29.6316 28.8065 29.6316 29.2165 29.2216C29.6265 28.8116 29.6265 28.1416 29.2165 27.7316L24.9765 23.4716ZM18.9765 23.4716C16.4865 23.4716 14.4765 21.4616 14.4765 18.9716C14.4765 16.4816 16.4865 14.4716 18.9765 14.4716C21.4665 14.4716 23.4765 16.4816 23.4765 18.9716C23.4765 21.4616 21.4665 23.4716 18.9765 23.4716Z" fill="#FF0074"/>
</svg>
