<svg width="15" height="15" viewBox="0 0 15 15" fill="none" xmlns="http://www.w3.org/2000/svg">
<path d="M13.7502 8.54171H8.54183V13.75C8.54183 14.323 8.07308 14.7917 7.50016 14.7917C6.92725 14.7917 6.4585 14.323 6.4585 13.75V8.54171H1.25016C0.677246 8.54171 0.208496 8.07296 0.208496 7.50004C0.208496 6.92712 0.677246 6.45837 1.25016 6.45837H6.4585V1.25004C6.4585 0.677124 6.92725 0.208374 7.50016 0.208374C8.07308 0.208374 8.54183 0.677124 8.54183 1.25004V6.45837H13.7502C14.3231 6.45837 14.7918 6.92712 14.7918 7.50004C14.7918 8.07296 14.3231 8.54171 13.7502 8.54171Z" fill="#FF7510"/>
</svg>
